<?xml version="1.0" encoding="UTF-8" standalone="no"?>
<!DOCTYPE svg PUBLIC "-//W3C//DTD SVG 1.1//EN" "http://www.w3.org/Graphics/SVG/1.1/DTD/svg11.dtd">
<svg width="100%" height="100%" viewBox="0 0 890 180" version="1.1" xmlns="http://www.w3.org/2000/svg" xmlns:xlink="http://www.w3.org/1999/xlink" xml:space="preserve" xmlns:serif="http://www.serif.com/" style="fill-rule:evenodd;clip-rule:evenodd;stroke-linejoin:round;stroke-miterlimit:2;">
    <g transform="matrix(5.78251,0,0,5.78251,-284.32,-459.338)">
        <path d="M88.082,80.447C89.133,80.447 90.184,80.438 91.235,80.45C91.984,80.457 92.725,80.541 93.44,80.782C95.041,81.321 95.932,82.56 96.001,84.254C96.055,85.605 95.725,86.893 95.44,88.191C94.34,93.203 93.241,98.216 92.137,103.227C91.863,104.468 91.427,105.644 90.673,106.684C89.553,108.228 88.008,109.049 86.156,109.352C85.498,109.46 84.835,109.495 84.169,109.493C82.242,109.486 80.315,109.491 78.389,109.49C77.775,109.49 77.777,109.49 77.908,108.899C78.649,105.54 79.387,102.179 80.129,98.82C81.446,92.852 82.768,86.885 84.073,80.914C84.156,80.534 84.318,80.432 84.685,80.439C85.817,80.461 86.949,80.447 88.082,80.447ZM84.826,104.826C85.002,104.826 85.177,104.83 85.352,104.825C86.169,104.803 86.713,104.411 86.991,103.64C87.047,103.486 87.094,103.329 87.129,103.17C88.249,98.088 89.368,93.007 90.481,87.924C90.6,87.378 90.769,86.84 90.783,86.274C90.802,85.533 90.486,85.194 89.749,85.17C89.433,85.16 89.118,85.164 88.803,85.164C88.207,85.163 88.205,85.164 88.079,85.74C86.754,91.803 85.431,97.867 84.103,103.931C83.908,104.828 83.9,104.826 84.826,104.826Z" style="fill:rgb(234,255,106);fill-rule:nonzero;"/>
        <path d="M136.34,109.498C135.64,109.498 134.939,109.5 134.238,109.498C133.829,109.497 133.81,109.476 133.896,109.082C134.363,106.95 134.83,104.82 135.297,102.689C135.66,101.038 136.018,99.385 136.392,97.735C136.461,97.43 136.381,97.35 136.078,97.359C135.377,97.377 134.676,97.379 133.976,97.358C133.678,97.349 133.568,97.469 133.51,97.741C132.694,101.491 131.87,105.24 131.051,108.989C130.94,109.497 130.946,109.499 130.421,109.499C129.078,109.499 127.735,109.5 126.391,109.499C125.875,109.499 125.873,109.496 125.983,108.992C126.496,106.656 127.012,104.321 127.524,101.985C128.601,97.074 129.676,92.163 130.752,87.251C131.216,85.132 131.687,83.014 132.136,80.891C132.207,80.551 132.342,80.435 132.692,80.44C134.058,80.459 135.424,80.447 136.79,80.449C137.293,80.449 137.303,80.459 137.2,80.932C136.423,84.476 135.644,88.019 134.867,91.563C134.807,91.836 134.754,92.111 134.69,92.383C134.647,92.566 134.702,92.636 134.897,92.634C135.679,92.626 136.462,92.622 137.244,92.635C137.487,92.639 137.535,92.495 137.574,92.316C137.952,90.583 138.33,88.851 138.709,87.118C139.164,85.033 139.626,82.949 140.071,80.861C140.137,80.553 140.265,80.438 140.584,80.442C141.974,80.457 143.364,80.447 144.753,80.449C145.214,80.449 145.227,80.47 145.125,80.934C144.182,85.242 143.237,89.549 142.295,93.856C141.197,98.87 140.103,103.884 139.002,108.898C138.845,109.615 138.903,109.491 138.265,109.498C137.625,109.504 136.983,109.498 136.34,109.498Z" style="fill:rgb(234,255,106);fill-rule:nonzero;"/>
        <path d="M76.007,80.018C77.169,80.008 78.187,80.113 79.154,80.509C80.64,81.115 81.365,82.255 81.495,83.828C81.608,85.196 81.226,86.488 80.938,87.794C79.773,93.058 78.599,98.319 77.433,103.582C77.205,104.614 76.881,105.609 76.345,106.525C75.523,107.933 74.352,108.928 72.804,109.446C70.909,110.081 68.98,110.172 67.05,109.633C65.229,109.125 64.255,107.784 64.207,105.891C64.174,104.574 64.539,103.328 64.815,102.065C65.964,96.812 67.122,91.56 68.281,86.308C68.55,85.091 68.959,83.927 69.694,82.903C70.941,81.162 72.696,80.336 74.772,80.09C75.225,80.036 75.678,80.008 76.007,80.018ZM70.58,105.252C71.526,105.249 72.113,104.741 72.338,103.723C73.39,98.95 74.442,94.176 75.49,89.402C75.745,88.24 76.038,87.086 76.229,85.91C76.316,85.374 76.11,84.927 75.653,84.812C74.659,84.564 73.823,84.818 73.42,85.838C73.338,86.043 73.282,86.259 73.235,86.475C72.161,91.388 71.089,96.301 70.018,101.213C69.832,102.068 69.637,102.922 69.466,103.78C69.266,104.782 69.634,105.255 70.58,105.252Z" style="fill:rgb(234,255,106);fill-rule:nonzero;"/>
        <path d="M141.584,105.568C141.531,104.496 141.864,103.44 142.098,102.371C143.273,96.992 144.463,91.616 145.652,86.239C145.976,84.771 146.529,83.404 147.55,82.272C148.743,80.947 150.29,80.316 152.02,80.103C153.408,79.932 154.796,79.944 156.146,80.377C157.886,80.935 158.821,82.239 158.873,84.071C158.91,85.364 158.557,86.589 158.284,87.828C157.125,93.091 155.956,98.352 154.784,103.612C154.399,105.341 153.737,106.926 152.385,108.148C151.447,108.995 150.34,109.489 149.119,109.742C147.757,110.023 146.388,110.051 145.015,109.792C142.885,109.39 141.505,108.057 141.584,105.568ZM147.907,105.252C148.727,105.249 149.282,104.86 149.549,104.09C149.61,103.914 149.657,103.732 149.697,103.55C150.913,98.087 152.129,92.623 153.338,87.158C153.451,86.647 153.615,86.144 153.582,85.608C153.561,85.249 153.416,84.966 153.075,84.837C152.518,84.627 151.452,84.634 150.986,85.425C150.805,85.731 150.679,86.053 150.604,86.397C149.694,90.531 148.784,94.664 147.876,98.798C147.508,100.472 147.136,102.145 146.781,103.822C146.579,104.779 146.966,105.255 147.907,105.252Z" style="fill:rgb(234,255,106);fill-rule:nonzero;"/>
        <path d="M115.778,80.447C116.843,80.487 118.153,80.376 119.458,80.512C120.148,80.584 120.817,80.744 121.433,81.073C122.599,81.698 123.126,82.725 123.264,83.999C123.39,85.157 123.159,86.275 122.915,87.393C122.631,88.692 122.374,89.998 122.072,91.293C121.546,93.548 120.264,95.184 118.069,96.033C117.809,96.134 117.772,96.281 117.804,96.514C118.072,98.408 118.339,100.302 118.602,102.197C118.924,104.519 119.24,106.842 119.568,109.164C119.604,109.415 119.544,109.503 119.29,109.502C117.666,109.496 116.043,109.495 114.419,109.503C114.172,109.505 114.087,109.394 114.075,109.176C114.046,108.687 114.012,108.198 113.987,107.709C113.886,105.692 113.788,103.676 113.686,101.66C113.617,100.308 113.549,98.956 113.464,97.606C113.454,97.441 113.522,97.15 113.298,97.138C113.103,97.127 113.143,97.416 113.108,97.572C112.261,101.4 111.418,105.229 110.588,109.06C110.515,109.395 110.386,109.513 110.035,109.508C108.645,109.488 107.255,109.501 105.865,109.499C105.438,109.499 105.424,109.481 105.517,109.06C106.358,105.243 107.201,101.426 108.042,97.609C109.272,92.025 110.503,86.443 111.725,80.857C111.793,80.548 111.922,80.437 112.24,80.442C113.34,80.457 114.439,80.447 115.778,80.447ZM116.628,85.099C116.57,85.099 116.512,85.099 116.453,85.099C115.791,85.11 115.887,85.017 115.744,85.673C115.291,87.744 114.831,89.813 114.384,91.885C114.196,92.755 114.082,92.645 115.023,92.621C116.227,92.59 116.841,92.065 117.098,90.896C117.41,89.474 117.724,88.052 118.001,86.623C118.188,85.652 117.926,85.038 116.767,85.099C116.721,85.102 116.675,85.099 116.628,85.099Z" style="fill:rgb(234,255,106);fill-rule:nonzero;"/>
        <path d="M163.927,80.448C164.616,80.448 165.305,80.446 165.995,80.448C166.434,80.45 166.451,80.474 166.355,80.914C165.485,84.88 164.615,88.845 163.745,92.811C162.953,96.423 162.157,100.035 161.369,103.648C161.189,104.473 161.325,104.924 161.774,105.138C162.403,105.438 163.361,105.217 163.789,104.675C164.02,104.384 164.143,104.046 164.221,103.689C165.833,96.292 167.446,88.894 169.058,81.496C169.073,81.427 169.092,81.36 169.107,81.292C169.332,80.296 169.144,80.459 170.177,80.451C171.415,80.441 172.653,80.448 173.891,80.448C174.331,80.449 174.346,80.472 174.25,80.913C173.109,86.109 171.968,91.305 170.828,96.501C170.295,98.928 169.772,101.358 169.228,103.782C168.831,105.553 168.101,107.15 166.662,108.332C165.467,109.314 164.054,109.754 162.537,109.91C161.402,110.027 160.276,109.982 159.164,109.716C156.793,109.149 155.883,107.435 156.073,105.199C156.238,103.264 156.81,101.4 157.219,99.509C158.369,94.184 159.548,88.865 160.715,83.543C160.913,82.643 161.117,81.744 161.299,80.841C161.357,80.548 161.484,80.432 161.791,80.441C162.502,80.461 163.215,80.448 163.927,80.448Z" style="fill:rgb(234,255,106);fill-rule:nonzero;"/>
        <path d="M184.161,90.437C183.437,90.437 182.712,90.425 181.989,90.442C181.68,90.45 181.637,90.332 181.698,90.066C181.98,88.826 182.259,87.586 182.523,86.342C182.623,85.874 182.745,85.364 182.322,84.995C181.859,84.59 181.288,84.682 180.754,84.83C180.271,84.963 179.962,85.33 179.808,85.792C179.455,86.858 179.254,87.962 179.064,89.064C178.935,89.812 179.294,90.451 179.716,91.042C180.352,91.934 181.156,92.664 181.997,93.354C183.276,94.403 184.242,95.657 184.62,97.303C184.836,98.243 184.787,99.182 184.582,100.113C184.267,101.549 183.969,102.99 183.593,104.411C183.097,106.287 182.147,107.872 180.433,108.906C179.306,109.585 178.063,109.886 176.768,109.967C175.613,110.04 174.455,110.014 173.336,109.651C171.517,109.062 170.577,107.782 170.537,105.866C170.521,105.126 170.622,104.4 170.784,103.68C171.071,102.406 171.359,101.132 171.63,99.854C171.685,99.598 171.798,99.505 172.054,99.507C173.49,99.513 174.927,99.516 176.363,99.506C176.694,99.504 176.755,99.618 176.684,99.928C176.377,101.282 176.08,102.638 175.804,103.998C175.648,104.767 176.058,105.237 176.845,105.252C177.766,105.27 178.378,104.878 178.615,103.977C178.929,102.782 179.187,101.571 179.419,100.357C179.562,99.61 179.282,98.93 178.883,98.304C178.26,97.325 177.407,96.564 176.523,95.832C175.141,94.687 174.127,93.31 173.869,91.485C173.759,90.708 173.783,89.924 173.955,89.153C174.258,87.798 174.513,86.431 174.942,85.108C175.931,82.062 178.05,80.408 181.223,80.086C182.652,79.941 184.072,79.962 185.433,80.494C186.938,81.082 187.683,82.223 187.821,83.813C187.936,85.134 187.564,86.38 187.3,87.643C187.131,88.453 186.933,89.258 186.767,90.069C186.71,90.35 186.584,90.451 186.295,90.444C185.586,90.424 184.873,90.437 184.161,90.437Z" style="fill:rgb(234,255,106);fill-rule:nonzero;"/>
        <path d="M63.588,90.437C62.887,90.437 62.186,90.438 61.486,90.437C61.06,90.436 61.053,90.422 61.146,89.996C61.432,88.697 61.722,87.399 61.997,86.097C62.128,85.481 61.961,85.049 61.556,84.846C60.928,84.531 59.922,84.776 59.489,85.338C59.138,85.792 59.058,86.34 58.941,86.873C57.873,91.751 56.812,96.63 55.75,101.509C55.576,102.306 55.397,103.104 55.24,103.905C55.067,104.79 55.455,105.25 56.353,105.253C57.266,105.255 57.891,104.762 58.099,103.849C58.393,102.553 58.685,101.255 58.955,99.953C59.025,99.614 59.164,99.497 59.514,99.502C60.892,99.521 62.27,99.509 63.649,99.511C64.105,99.511 64.128,99.534 64.026,99.96C63.648,101.548 63.397,103.168 62.914,104.729C61.996,107.699 59.999,109.426 56.9,109.854C55.628,110.03 54.365,110.016 53.111,109.716C50.749,109.151 49.828,107.432 50.026,105.197C50.201,103.216 50.784,101.307 51.201,99.37C52.135,95.036 53.097,90.709 54.053,86.38C54.4,84.809 54.968,83.34 56.106,82.15C57.301,80.901 58.808,80.304 60.487,80.1C61.746,79.947 63.002,79.962 64.243,80.275C66.608,80.872 67.476,82.625 67.29,84.799C67.134,86.619 66.544,88.357 66.182,90.139C66.137,90.36 66.024,90.444 65.795,90.441C65.06,90.429 64.323,90.436 63.588,90.437Z" style="fill:rgb(234,255,106);fill-rule:nonzero;"/>
        <path d="M190.036,109.49C188.214,109.49 186.392,109.491 184.57,109.49C184.162,109.49 184.15,109.469 184.237,109.07C185.642,102.666 187.047,96.263 188.45,89.859C189.099,86.896 189.746,83.933 190.393,80.97C190.507,80.448 190.509,80.447 191.062,80.447L201.748,80.447C202.302,80.447 202.305,80.448 202.19,80.977C201.913,82.242 201.625,83.504 201.362,84.772C201.3,85.074 201.164,85.17 200.866,85.169C198.904,85.159 196.942,85.17 194.98,85.158C194.659,85.156 194.511,85.235 194.439,85.578C193.968,87.816 193.478,90.049 192.977,92.279C192.905,92.6 193.025,92.635 193.287,92.633C194.957,92.627 196.627,92.63 198.297,92.63C198.716,92.63 198.727,92.645 198.639,93.04C198.352,94.338 198.055,95.634 197.783,96.936C197.722,97.225 197.601,97.312 197.315,97.31C195.645,97.299 193.975,97.313 192.305,97.298C191.995,97.295 191.877,97.406 191.815,97.694C191.339,99.918 190.849,102.139 190.364,104.362C190.277,104.76 190.284,104.771 190.701,104.771C192.604,104.772 194.508,104.771 196.412,104.772C196.968,104.772 196.973,104.774 196.858,105.305C196.583,106.571 196.295,107.833 196.031,109.101C195.969,109.398 195.839,109.499 195.536,109.497C193.703,109.485 191.869,109.49 190.036,109.49Z" style="fill:rgb(234,255,106);fill-rule:nonzero;"/>
        <path d="M98.344,109.499C96.522,109.499 94.701,109.499 92.879,109.498C92.469,109.498 92.453,109.478 92.539,109.084C93.615,104.173 94.691,99.262 95.767,94.352C96.743,89.897 97.718,85.441 98.693,80.986C98.812,80.447 98.815,80.448 99.374,80.448L110.06,80.448C110.614,80.448 110.613,80.45 110.491,81C110.216,82.241 109.93,83.48 109.676,84.726C109.605,85.072 109.455,85.174 109.114,85.171C107.175,85.157 105.237,85.171 103.299,85.158C102.964,85.156 102.81,85.241 102.735,85.595C102.275,87.798 101.788,89.997 101.311,92.197C101.218,92.624 101.232,92.64 101.657,92.641C103.292,92.642 104.927,92.641 106.562,92.642C106.967,92.643 106.992,92.674 106.907,93.061C106.617,94.37 106.317,95.678 106.042,96.991C105.981,97.281 105.854,97.37 105.571,97.368C103.913,97.359 102.254,97.374 100.596,97.357C100.255,97.353 100.133,97.474 100.065,97.792C99.594,100.006 99.106,102.215 98.623,104.426C98.536,104.824 98.537,104.827 98.962,104.827C100.9,104.828 102.839,104.827 104.777,104.828C105.265,104.828 105.272,104.831 105.174,105.285C104.895,106.573 104.606,107.859 104.329,109.148C104.274,109.408 104.155,109.507 103.878,109.505C102.034,109.493 100.189,109.499 98.344,109.499Z" style="fill:rgb(234,255,106);fill-rule:nonzero;"/>
    </g>
</svg>
